<svg xmlns="http://www.w3.org/2000/svg" width="149.492" height="36.018" viewBox="0 0 149.492 36.018">
  <g id="Grupo_23" data-name="Grupo 23" transform="translate(-215.254 -846.982)">
    <g id="Grupo_14" data-name="Grupo 14">
      <g id="Grupo_13" data-name="Grupo 13" transform="translate(-38 90)">
        <g id="Grupo_7" data-name="Grupo 7" transform="translate(163 718)">
          <path id="Trazado_5" data-name="Trazado 5" d="M15.77-5.662A7.843,7.843,0,0,0,19.361-6.5a9.231,9.231,0,0,0,2.983-2.47L26.638-4.75a13.371,13.371,0,0,1-4.883,3.724A14.573,14.573,0,0,1,15.542.38,14.957,14.957,0,0,1,9.9-.684,14.062,14.062,0,0,1,5.358-3.572a13.414,13.414,0,0,1-3-4.332,13.264,13.264,0,0,1-1.1-5.4,13.4,13.4,0,0,1,1.1-5.415,13.219,13.219,0,0,1,3.021-4.351,14.34,14.34,0,0,1,4.541-2.888,14.813,14.813,0,0,1,5.624-1.064,14.385,14.385,0,0,1,3.268.38,16.993,16.993,0,0,1,3.116,1.045,13.484,13.484,0,0,1,2.736,1.634,12,12,0,0,1,2.166,2.147L22.42-17.48a9.841,9.841,0,0,0-3.135-2.641,8.037,8.037,0,0,0-3.743-.893,7.552,7.552,0,0,0-2.983.589,7.325,7.325,0,0,0-2.394,1.615,7.6,7.6,0,0,0-1.6,2.451A7.928,7.928,0,0,0,7.98-13.3a7.649,7.649,0,0,0,.589,3.021A7.393,7.393,0,0,0,10.2-7.866a7.661,7.661,0,0,0,2.47,1.615A8.028,8.028,0,0,0,15.77-5.662Zm19.76,6a7.8,7.8,0,0,1-5.244-1.748A5.624,5.624,0,0,1,28.234-5.89a5.194,5.194,0,0,1,2.185-4.446,10.179,10.179,0,0,1,6.1-1.6,17.52,17.52,0,0,1,2.318.152,21.863,21.863,0,0,1,2.242.418v-.988a2.666,2.666,0,0,0-.969-2.261,4.675,4.675,0,0,0-2.869-.741,10.83,10.83,0,0,0-2.66.38,23.673,23.673,0,0,0-3.42,1.216l-2.2-4.522a26.065,26.065,0,0,1,4.769-1.653,20.07,20.07,0,0,1,4.617-.551,9.654,9.654,0,0,1,6.5,1.995,7,7,0,0,1,2.318,5.6V0h-6.08V-1.216a8.291,8.291,0,0,1-2.565,1.2A11.529,11.529,0,0,1,35.53.342ZM34.086-6a1.667,1.667,0,0,0,.836,1.482,4.3,4.3,0,0,0,2.318.532,9.024,9.024,0,0,0,2.071-.228,5.9,5.9,0,0,0,1.767-.722V-7.524a13.9,13.9,0,0,0-1.786-.342A15,15,0,0,0,37.43-7.98a4.916,4.916,0,0,0-2.47.513A1.611,1.611,0,0,0,34.086-6Zm16.72,6V-20.1h6.156v1.292A7.587,7.587,0,0,1,59.3-20.064a8.532,8.532,0,0,1,2.679-.418,7.737,7.737,0,0,1,3.4.741,7.23,7.23,0,0,1,2.565,2.033,8.355,8.355,0,0,1,2.888-2.052,9.1,9.1,0,0,1,3.648-.722,7.422,7.422,0,0,1,5.605,2.28,8.06,8.06,0,0,1,2.185,5.814V0H76.114V-11.552a3.833,3.833,0,0,0-.893-2.641A3.018,3.018,0,0,0,72.846-15.2a4.268,4.268,0,0,0-1.862.4A4.28,4.28,0,0,0,69.54-13.68q.038.3.057.627t.019.665V0H63.46V-11.552a3.833,3.833,0,0,0-.893-2.641A3.018,3.018,0,0,0,60.192-15.2a4.514,4.514,0,0,0-1.843.361,3.6,3.6,0,0,0-1.387,1.083V0ZM85.918,8.018V-20.1H92v1.482a9.646,9.646,0,0,1,2.546-1.292,8.953,8.953,0,0,1,2.85-.456,10.158,10.158,0,0,1,4.009.8,10.053,10.053,0,0,1,3.268,2.2,10.431,10.431,0,0,1,2.185,3.287,10.254,10.254,0,0,1,.8,4.047,10.047,10.047,0,0,1-.817,4.047,10.307,10.307,0,0,1-2.223,3.268,10.321,10.321,0,0,1-3.325,2.185,10.532,10.532,0,0,1-4.085.8,10.5,10.5,0,0,1-2.7-.342,10.21,10.21,0,0,1-2.432-.988V8.018ZM96.33-15.124a6.664,6.664,0,0,0-2.356.4,5.549,5.549,0,0,0-1.9,1.2V-6.5a5.934,5.934,0,0,0,1.9,1.14,6.587,6.587,0,0,0,2.356.418A5.214,5.214,0,0,0,100.092-6.4a4.834,4.834,0,0,0,1.52-3.629,4.8,4.8,0,0,0-1.539-3.629A5.232,5.232,0,0,0,96.33-15.124ZM116.546-20.1V-8.55a3.571,3.571,0,0,0,1.007,2.641A3.571,3.571,0,0,0,120.194-4.9a4.965,4.965,0,0,0,2.09-.418A4.107,4.107,0,0,0,123.8-6.5V-20.1h6.156V0H123.8V-1.368a8.449,8.449,0,0,1-2.489,1.292,9.248,9.248,0,0,1-2.907.456,7.748,7.748,0,0,1-5.776-2.28,7.946,7.946,0,0,1-2.242-5.814V-20.1ZM132.2-2.242l2.926-4.142a17.516,17.516,0,0,0,3.458,1.653,9.8,9.8,0,0,0,3.078.513,5.552,5.552,0,0,0,2.413-.437,1.313,1.313,0,0,0,.893-1.159,1.106,1.106,0,0,0-.494-.931,3.544,3.544,0,0,0-1.558-.513l-3.99-.608a8.181,8.181,0,0,1-4.56-1.995,5.319,5.319,0,0,1-1.6-4.009,5.671,5.671,0,0,1,2.318-4.788,10.316,10.316,0,0,1,6.346-1.748,15.712,15.712,0,0,1,4.351.627,15.545,15.545,0,0,1,4.047,1.805l-2.926,3.952a14.311,14.311,0,0,0-3.116-1.387,10.434,10.434,0,0,0-2.964-.437,3.92,3.92,0,0,0-1.9.4,1.184,1.184,0,0,0-.722,1.045,1.117,1.117,0,0,0,.532.969,4.635,4.635,0,0,0,1.824.551l3.99.608a8.089,8.089,0,0,1,4.579,1.957,5.15,5.15,0,0,1,1.615,3.895,5.546,5.546,0,0,1-.684,2.7,6.8,6.8,0,0,1-1.881,2.166,9.081,9.081,0,0,1-2.869,1.425A12.25,12.25,0,0,1,141.7.38a20.187,20.187,0,0,1-5.3-.665A12.49,12.49,0,0,1,132.2-2.242Z" transform="translate(89 66)" fill="#3c3c3c"/>
        </g>
        <g id="Grupo_6" data-name="Grupo 6" transform="translate(138 701.157)">
          <path id="Trazado_12210" data-name="Trazado 12210" d="M483.336,406.272V404.7h-1.721v-1.634l-1.234.267a1.764,1.764,0,0,1-.26.651,1.722,1.722,0,0,1-1.124.779c-.025.006-.051.008-.076.013v1.493h.81v2.708a1.836,1.836,0,0,0,.564,1.459,2.463,2.463,0,0,0,1.668.494,5.186,5.186,0,0,0,.663-.052,3.864,3.864,0,0,0,.651-.134v-1.523a3.053,3.053,0,0,1-.43.1,2.855,2.855,0,0,1-.419.029.928.928,0,0,1-.633-.168.764.764,0,0,1-.18-.575v-2.337Z" transform="translate(-345.999 -319.197)" fill="#3c3c3c"/>
          <path id="Trazado_12212" data-name="Trazado 12212" d="M408.307,416.114l.895-1.267a5.363,5.363,0,0,0,1.058.506,2.994,2.994,0,0,0,.941.157,1.7,1.7,0,0,0,.738-.134.4.4,0,0,0,.274-.354.34.34,0,0,0-.152-.285,1.089,1.089,0,0,0-.477-.157l-1.22-.186a2.5,2.5,0,0,1-1.4-.61,1.626,1.626,0,0,1-.487-1.227,1.735,1.735,0,0,1,.709-1.465,3.158,3.158,0,0,1,1.942-.535,4.81,4.81,0,0,1,1.331.192,4.752,4.752,0,0,1,1.238.552l-.895,1.209a4.383,4.383,0,0,0-.954-.424,3.191,3.191,0,0,0-.906-.133,1.2,1.2,0,0,0-.582.122.363.363,0,0,0-.221.32.341.341,0,0,0,.163.3,1.411,1.411,0,0,0,.558.169l1.221.186a2.475,2.475,0,0,1,1.4.6,1.576,1.576,0,0,1,.494,1.191,1.7,1.7,0,0,1-.209.825,2.085,2.085,0,0,1-.575.663,2.785,2.785,0,0,1-.878.436,3.754,3.754,0,0,1-1.1.157,6.179,6.179,0,0,1-1.621-.2,3.811,3.811,0,0,1-1.285-.6" transform="translate(-289.882 -325.145)" fill="#3c3c3c"/>
          <path id="Trazado_12213" data-name="Trazado 12213" d="M449.7,416.116l.895-1.267a5.363,5.363,0,0,0,1.058.506,2.992,2.992,0,0,0,.941.157,1.7,1.7,0,0,0,.738-.134.4.4,0,0,0,.274-.354.339.339,0,0,0-.152-.285,1.089,1.089,0,0,0-.477-.157l-1.221-.186a2.5,2.5,0,0,1-1.4-.61,1.626,1.626,0,0,1-.488-1.226,1.735,1.735,0,0,1,.709-1.465,3.157,3.157,0,0,1,1.942-.535,4.814,4.814,0,0,1,1.331.192,4.756,4.756,0,0,1,1.238.552l-.895,1.209a4.385,4.385,0,0,0-.954-.424,3.192,3.192,0,0,0-.906-.133,1.2,1.2,0,0,0-.582.122.362.362,0,0,0-.221.32.341.341,0,0,0,.164.3,1.41,1.41,0,0,0,.558.169l1.221.186a2.475,2.475,0,0,1,1.4.6,1.576,1.576,0,0,1,.494,1.191,1.7,1.7,0,0,1-.21.826,2.087,2.087,0,0,1-.575.663,2.786,2.786,0,0,1-.878.436,3.753,3.753,0,0,1-1.1.157,6.179,6.179,0,0,1-1.621-.2,3.812,3.812,0,0,1-1.285-.6" transform="translate(-322.777 -325.147)" fill="#3c3c3c"/>
          <path id="Trazado_12214" data-name="Trazado 12214" d="M507.936,415.953a3.948,3.948,0,0,1-1.192.709,4.035,4.035,0,0,1-1.378.221,3.533,3.533,0,0,1-1.313-.244,3.168,3.168,0,0,1-1.773-1.691,3.033,3.033,0,0,1-.261-1.25,3.16,3.16,0,0,1,.25-1.25,3.2,3.2,0,0,1,.68-1.017,3.115,3.115,0,0,1,1.017-.674,3.254,3.254,0,0,1,1.261-.244,3,3,0,0,1,2.227.953,3.165,3.165,0,0,1,.645,1.063,3.8,3.8,0,0,1,.233,1.343v.465h-4.383a1.624,1.624,0,0,0,.582.7,1.6,1.6,0,0,0,.93.273,1.908,1.908,0,0,0,.7-.122,1.517,1.517,0,0,0,.534-.343Zm-2.743-3.906a1.289,1.289,0,0,0-.8.256,1.364,1.364,0,0,0-.477.721h2.569a1.485,1.485,0,0,0-.494-.709,1.259,1.259,0,0,0-.8-.267" transform="translate(-364.355 -325.112)" fill="#3c3c3c"/>
          <g id="Grupo_19581" data-name="Grupo 19581" transform="translate(144.406 83.872)">
            <path id="Trazado_12215" data-name="Trazado 12215" d="M674.612,406.272V404.7h-1.721v-1.634l-1.234.267a1.765,1.765,0,0,1-.26.651,1.721,1.721,0,0,1-1.124.779c-.025.006-.051.008-.076.013v1.493h.81v2.708a1.836,1.836,0,0,0,.564,1.459,2.463,2.463,0,0,0,1.668.494,5.2,5.2,0,0,0,.663-.052,3.866,3.866,0,0,0,.651-.134v-1.523a3.054,3.054,0,0,1-.43.1,2.858,2.858,0,0,1-.419.029.928.928,0,0,1-.633-.168.763.763,0,0,1-.18-.575v-2.337Z" transform="translate(-642.411 -403.069)" fill="#3c3c3c"/>
            <path id="Trazado_12216" data-name="Trazado 12216" d="M596.753,403.1a1.041,1.041,0,0,0,2.079,0Z" transform="translate(-584.045 -403.094)" fill="#3c3c3c"/>
            <path id="Trazado_12217" data-name="Trazado 12217" d="M655.723,403.1a1.041,1.041,0,0,0,2.079,0Z" transform="translate(-630.909 -403.094)" fill="#3c3c3c"/>
            <path id="Trazado_12218" data-name="Trazado 12218" d="M538.206,415.214a1.561,1.561,0,0,0,.709-.162,2.14,2.14,0,0,0,.628-.5l1.116,1.164a3.18,3.18,0,0,1-1.139.831,3.455,3.455,0,0,1-1.406.3,3.368,3.368,0,0,1-1.285-.244,3.138,3.138,0,0,1-1.97-2.941,3.188,3.188,0,0,1,.25-1.261,3.08,3.08,0,0,1,.686-1.012,3.317,3.317,0,0,1,2.319-.924,3.541,3.541,0,0,1,1.443.3,3.341,3.341,0,0,1,1.163.837l-1.151,1.2a2.4,2.4,0,0,0-.663-.535,1.6,1.6,0,0,0-.744-.174,1.32,1.32,0,0,0-1.017.453,1.6,1.6,0,0,0-.413,1.116,1.551,1.551,0,0,0,.424,1.11,1.392,1.392,0,0,0,1.052.448" transform="translate(-534.858 -408.942)" fill="#3c3c3c"/>
            <path id="Trazado_12219" data-name="Trazado 12219" d="M565.6,416.637v-6.15h1.883v.616a2.137,2.137,0,0,1,.709-.558,2.05,2.05,0,0,1,.907-.2,3.462,3.462,0,0,1,.43.041.691.691,0,0,1,.278.111v1.639a2.308,2.308,0,0,0-.418-.134,2.164,2.164,0,0,0-.477-.052,1.663,1.663,0,0,0-.82.209,1.691,1.691,0,0,0-.61.57v3.906Z" transform="translate(-559.288 -408.854)" fill="#3c3c3c"/>
            <path id="Trazado_12220" data-name="Trazado 12220" d="M592.358,415.953a3.947,3.947,0,0,1-1.192.709,4.034,4.034,0,0,1-1.378.221,3.533,3.533,0,0,1-1.314-.244,3.168,3.168,0,0,1-1.773-1.691,3.034,3.034,0,0,1-.261-1.25,3.162,3.162,0,0,1,.25-1.25,3.2,3.2,0,0,1,.68-1.017,3.116,3.116,0,0,1,1.017-.674,3.254,3.254,0,0,1,1.261-.244,3,3,0,0,1,2.227.953,3.163,3.163,0,0,1,.645,1.063,3.8,3.8,0,0,1,.233,1.343v.465h-4.383a1.624,1.624,0,0,0,.582.7,1.6,1.6,0,0,0,.93.273,1.908,1.908,0,0,0,.7-.122,1.518,1.518,0,0,0,.535-.343Zm-2.743-3.906a1.289,1.289,0,0,0-.8.256,1.363,1.363,0,0,0-.477.721H590.9a1.485,1.485,0,0,0-.494-.709,1.259,1.259,0,0,0-.8-.267" transform="translate(-575.851 -408.984)" fill="#3c3c3c"/>
            <path id="Trazado_12221" data-name="Trazado 12221" d="M624.071,410.882v-.453a2.955,2.955,0,0,1-.779.4,2.737,2.737,0,0,1-.872.139,3.105,3.105,0,0,1-1.226-.244,3.071,3.071,0,0,1-1-.674,3.189,3.189,0,0,1-.668-1.006,3.138,3.138,0,0,1-.244-1.238,3.072,3.072,0,0,1,.25-1.238,3.112,3.112,0,0,1,1.7-1.668,3.316,3.316,0,0,1,2.075-.139,3.12,3.12,0,0,1,.744.3v-1.544l1.883-.407v7.775ZM621.13,407.8a1.468,1.468,0,0,0,.471,1.11,1.6,1.6,0,0,0,1.145.448,2.047,2.047,0,0,0,.721-.122,1.7,1.7,0,0,0,.582-.366V406.72a1.826,1.826,0,0,0-.582-.349,2.018,2.018,0,0,0-.721-.128,1.594,1.594,0,0,0-1.151.448,1.479,1.479,0,0,0-.465,1.11" transform="translate(-601.949 -403.099)" fill="#3c3c3c"/>
            <rect id="Rectángulo_3758" data-name="Rectángulo 3758" width="1.883" height="6.149" transform="translate(24.912 1.633)" fill="#3c3c3c"/>
            <path id="Trazado_12222" data-name="Trazado 12222" d="M698.321,412.327a.282.282,0,0,0-.371.145l-.366.835a1.784,1.784,0,0,1,.034.346,1.535,1.535,0,0,1-.436,1.1,1.475,1.475,0,0,1-2.128,0,1.631,1.631,0,0,1,0-2.22,1.474,1.474,0,0,1,2.128,0,1.573,1.573,0,0,1,.223.3l.22-.5a.635.635,0,0,1,.837-.327l.677.3a3.191,3.191,0,0,0-.656-.913,3.343,3.343,0,0,0-1.058-.68,3.548,3.548,0,0,0-2.616,0,3.339,3.339,0,0,0-1.058.68,3.21,3.21,0,0,0-.709,1.018,3.118,3.118,0,0,0,0,2.5,3.2,3.2,0,0,0,.709,1.017,3.247,3.247,0,0,0,1.058.674,3.626,3.626,0,0,0,2.616,0,3.249,3.249,0,0,0,1.058-.674,3.2,3.2,0,0,0,.709-1.017,3.032,3.032,0,0,0,.262-1.249,3.069,3.069,0,0,0-.13-.888Z" transform="translate(-660.36 -408.94)" fill="#3c3c3c"/>
          </g>
        </g>
        <g id="Rectángulo_4" data-name="Rectángulo 4" transform="translate(347 787)" fill="#3ec72e" stroke="#fff" stroke-width="0.3">
          <rect width="31" height="6" rx="3" stroke="none"/>
          <rect x="0.15" y="0.15" width="30.7" height="5.7" rx="2.85" fill="none"/>
        </g>
        <g id="Rectángulo_5" data-name="Rectángulo 5" transform="translate(388 787)" fill="#ff6c0e" stroke="#fff" stroke-width="0.3">
          <rect width="6" height="6" rx="3" stroke="none"/>
          <rect x="0.15" y="0.15" width="5.7" height="5.7" rx="2.85" fill="none"/>
        </g>
      </g>
      <g id="Trazado_1" data-name="Trazado 1" transform="translate(342 877)" fill="#05369c">
        <path d="M 3 5.849999904632568 C 1.428500056266785 5.849999904632568 0.1500000059604645 4.571499824523926 0.1500000059604645 3 C 0.1500000059604645 1.428500056266785 1.428500056266785 0.1500000059604645 3 0.1500000059604645 C 4.571499824523926 0.1500000059604645 5.849999904632568 1.428500056266785 5.849999904632568 3 C 5.849999904632568 4.571499824523926 4.571499824523926 5.849999904632568 3 5.849999904632568 Z" stroke="none"/>
        <path d="M 3 0.3000001907348633 C 1.511209964752197 0.3000001907348633 0.3000001907348633 1.511209964752197 0.3000001907348633 3 C 0.3000001907348633 4.488790035247803 1.511209964752197 5.699999809265137 3 5.699999809265137 C 4.488790035247803 5.699999809265137 5.699999809265137 4.488790035247803 5.699999809265137 3 C 5.699999809265137 1.511209964752197 4.488790035247803 0.3000001907348633 3 0.3000001907348633 M 3 0 C 4.65684986114502 0 6 1.34315013885498 6 3 C 6 4.65684986114502 4.65684986114502 6 3 6 C 1.34315013885498 6 0 4.65684986114502 0 3 C 0 1.34315013885498 1.34315013885498 0 3 0 Z" stroke="none" fill="#fff"/>
      </g>
    </g>
    <g id="Trazado_2" data-name="Trazado 2" transform="translate(358 877)" fill="#fecd3b">
      <path d="M 3 5.849999904632568 C 1.428500056266785 5.849999904632568 0.1500000059604645 4.571499824523926 0.1500000059604645 3 C 0.1500000059604645 1.428500056266785 1.428500056266785 0.1500000059604645 3 0.1500000059604645 C 4.571499824523926 0.1500000059604645 5.849999904632568 1.428500056266785 5.849999904632568 3 C 5.849999904632568 4.571499824523926 4.571499824523926 5.849999904632568 3 5.849999904632568 Z" stroke="none"/>
      <path d="M 3 0.3000001907348633 C 1.511209964752197 0.3000001907348633 0.3000001907348633 1.511209964752197 0.3000001907348633 3 C 0.3000001907348633 4.488790035247803 1.511209964752197 5.699999809265137 3 5.699999809265137 C 4.488790035247803 5.699999809265137 5.699999809265137 4.488790035247803 5.699999809265137 3 C 5.699999809265137 1.511209964752197 4.488790035247803 0.3000001907348633 3 0.3000001907348633 M 3 0 C 4.65684986114502 0 6 1.34315013885498 6 3 C 6 4.65684986114502 4.65684986114502 6 3 6 C 1.34315013885498 6 0 4.65684986114502 0 3 C 0 1.34315013885498 1.34315013885498 0 3 0 Z" stroke="none" fill="#fff"/>
    </g>
    <path id="Trazado_12217-2" data-name="Trazado 12217" d="M655.723,403.1a1.012,1.012,0,0,0,2.023,0Z" transform="translate(-431.285 471.935)" fill="#3c3c3c"/>
    <rect id="Rectángulo_3758-2" data-name="Rectángulo 3758" width="1.827" height="6.149" transform="translate(224.535 876.662)" fill="#3c3c3c"/>
  </g>
</svg>
