<svg xmlns="http://www.w3.org/2000/svg" width="152" height="51" viewBox="0 0 152 51">
  <g id="Grupo_22" data-name="Grupo 22" transform="translate(-214 -835)">
    <g id="Grupo_14" data-name="Grupo 14">
      <g id="Grupo_13" data-name="Grupo 13" transform="translate(-38 90)">
        <g id="Grupo_7" data-name="Grupo 7" transform="translate(163 718)">
          <text id="Campus" transform="translate(89 66)" fill="#fff" font-size="38" font-family="RedHatDisplay-Black, Red Hat Display" font-weight="800"><tspan x="0" y="0">Campus</tspan></text>
        </g>
        <g id="Grupo_6" data-name="Grupo 6" transform="translate(138 701.157)">
          <path id="Trazado_12210" data-name="Trazado 12210" d="M483.336,406.272V404.7h-1.721v-1.634l-1.234.267a1.764,1.764,0,0,1-.26.651,1.722,1.722,0,0,1-1.124.779c-.025.006-.051.008-.076.013v1.493h.81v2.708a1.836,1.836,0,0,0,.564,1.459,2.463,2.463,0,0,0,1.668.494,5.186,5.186,0,0,0,.663-.052,3.864,3.864,0,0,0,.651-.134v-1.523a3.053,3.053,0,0,1-.43.1,2.855,2.855,0,0,1-.419.029.928.928,0,0,1-.633-.168.764.764,0,0,1-.18-.575v-2.337Z" transform="translate(-345.999 -319.197)" fill="#fff"/>
          <path id="Trazado_12212" data-name="Trazado 12212" d="M408.307,416.114l.895-1.267a5.363,5.363,0,0,0,1.058.506,2.994,2.994,0,0,0,.941.157,1.7,1.7,0,0,0,.738-.134.4.4,0,0,0,.274-.354.34.34,0,0,0-.152-.285,1.089,1.089,0,0,0-.477-.157l-1.22-.186a2.5,2.5,0,0,1-1.4-.61,1.626,1.626,0,0,1-.487-1.227,1.735,1.735,0,0,1,.709-1.465,3.158,3.158,0,0,1,1.942-.535,4.81,4.81,0,0,1,1.331.192,4.752,4.752,0,0,1,1.238.552l-.895,1.209a4.383,4.383,0,0,0-.954-.424,3.191,3.191,0,0,0-.906-.133,1.2,1.2,0,0,0-.582.122.363.363,0,0,0-.221.32.341.341,0,0,0,.163.3,1.411,1.411,0,0,0,.558.169l1.221.186a2.475,2.475,0,0,1,1.4.6,1.576,1.576,0,0,1,.494,1.191,1.7,1.7,0,0,1-.209.825,2.085,2.085,0,0,1-.575.663,2.785,2.785,0,0,1-.878.436,3.754,3.754,0,0,1-1.1.157,6.179,6.179,0,0,1-1.621-.2,3.811,3.811,0,0,1-1.285-.6" transform="translate(-289.882 -325.145)" fill="#fff"/>
          <path id="Trazado_12213" data-name="Trazado 12213" d="M449.7,416.116l.895-1.267a5.363,5.363,0,0,0,1.058.506,2.992,2.992,0,0,0,.941.157,1.7,1.7,0,0,0,.738-.134.4.4,0,0,0,.274-.354.339.339,0,0,0-.152-.285,1.089,1.089,0,0,0-.477-.157l-1.221-.186a2.5,2.5,0,0,1-1.4-.61,1.626,1.626,0,0,1-.488-1.226,1.735,1.735,0,0,1,.709-1.465,3.157,3.157,0,0,1,1.942-.535,4.814,4.814,0,0,1,1.331.192,4.756,4.756,0,0,1,1.238.552l-.895,1.209a4.385,4.385,0,0,0-.954-.424,3.192,3.192,0,0,0-.906-.133,1.2,1.2,0,0,0-.582.122.362.362,0,0,0-.221.32.341.341,0,0,0,.164.3,1.41,1.41,0,0,0,.558.169l1.221.186a2.475,2.475,0,0,1,1.4.6,1.576,1.576,0,0,1,.494,1.191,1.7,1.7,0,0,1-.21.826,2.087,2.087,0,0,1-.575.663,2.786,2.786,0,0,1-.878.436,3.753,3.753,0,0,1-1.1.157,6.179,6.179,0,0,1-1.621-.2,3.812,3.812,0,0,1-1.285-.6" transform="translate(-322.777 -325.147)" fill="#fff"/>
          <path id="Trazado_12214" data-name="Trazado 12214" d="M507.936,415.953a3.948,3.948,0,0,1-1.192.709,4.035,4.035,0,0,1-1.378.221,3.533,3.533,0,0,1-1.313-.244,3.168,3.168,0,0,1-1.773-1.691,3.033,3.033,0,0,1-.261-1.25,3.16,3.16,0,0,1,.25-1.25,3.2,3.2,0,0,1,.68-1.017,3.115,3.115,0,0,1,1.017-.674,3.254,3.254,0,0,1,1.261-.244,3,3,0,0,1,2.227.953,3.165,3.165,0,0,1,.645,1.063,3.8,3.8,0,0,1,.233,1.343v.465h-4.383a1.624,1.624,0,0,0,.582.7,1.6,1.6,0,0,0,.93.273,1.908,1.908,0,0,0,.7-.122,1.517,1.517,0,0,0,.534-.343Zm-2.743-3.906a1.289,1.289,0,0,0-.8.256,1.364,1.364,0,0,0-.477.721h2.569a1.485,1.485,0,0,0-.494-.709,1.259,1.259,0,0,0-.8-.267" transform="translate(-364.355 -325.112)" fill="#fff"/>
          <g id="Grupo_19581" data-name="Grupo 19581" transform="translate(144.406 83.872)">
            <path id="Trazado_12215" data-name="Trazado 12215" d="M674.612,406.272V404.7h-1.721v-1.634l-1.234.267a1.765,1.765,0,0,1-.26.651,1.721,1.721,0,0,1-1.124.779c-.025.006-.051.008-.076.013v1.493h.81v2.708a1.836,1.836,0,0,0,.564,1.459,2.463,2.463,0,0,0,1.668.494,5.2,5.2,0,0,0,.663-.052,3.866,3.866,0,0,0,.651-.134v-1.523a3.054,3.054,0,0,1-.43.1,2.858,2.858,0,0,1-.419.029.928.928,0,0,1-.633-.168.763.763,0,0,1-.18-.575v-2.337Z" transform="translate(-642.411 -403.069)" fill="#fff"/>
            <path id="Trazado_12216" data-name="Trazado 12216" d="M596.753,403.1a1.041,1.041,0,0,0,2.079,0Z" transform="translate(-584.045 -403.094)" fill="#fff"/>
            <path id="Trazado_12217" data-name="Trazado 12217" d="M655.723,403.1a1.041,1.041,0,0,0,2.079,0Z" transform="translate(-630.909 -403.094)" fill="#fff"/>
            <path id="Trazado_12218" data-name="Trazado 12218" d="M538.206,415.214a1.561,1.561,0,0,0,.709-.162,2.14,2.14,0,0,0,.628-.5l1.116,1.164a3.18,3.18,0,0,1-1.139.831,3.455,3.455,0,0,1-1.406.3,3.368,3.368,0,0,1-1.285-.244,3.138,3.138,0,0,1-1.97-2.941,3.188,3.188,0,0,1,.25-1.261,3.08,3.08,0,0,1,.686-1.012,3.317,3.317,0,0,1,2.319-.924,3.541,3.541,0,0,1,1.443.3,3.341,3.341,0,0,1,1.163.837l-1.151,1.2a2.4,2.4,0,0,0-.663-.535,1.6,1.6,0,0,0-.744-.174,1.32,1.32,0,0,0-1.017.453,1.6,1.6,0,0,0-.413,1.116,1.551,1.551,0,0,0,.424,1.11,1.392,1.392,0,0,0,1.052.448" transform="translate(-534.858 -408.942)" fill="#fff"/>
            <path id="Trazado_12219" data-name="Trazado 12219" d="M565.6,416.637v-6.15h1.883v.616a2.137,2.137,0,0,1,.709-.558,2.05,2.05,0,0,1,.907-.2,3.462,3.462,0,0,1,.43.041.691.691,0,0,1,.278.111v1.639a2.308,2.308,0,0,0-.418-.134,2.164,2.164,0,0,0-.477-.052,1.663,1.663,0,0,0-.82.209,1.691,1.691,0,0,0-.61.57v3.906Z" transform="translate(-559.288 -408.854)" fill="#fff"/>
            <path id="Trazado_12220" data-name="Trazado 12220" d="M592.358,415.953a3.947,3.947,0,0,1-1.192.709,4.034,4.034,0,0,1-1.378.221,3.533,3.533,0,0,1-1.314-.244,3.168,3.168,0,0,1-1.773-1.691,3.034,3.034,0,0,1-.261-1.25,3.162,3.162,0,0,1,.25-1.25,3.2,3.2,0,0,1,.68-1.017,3.116,3.116,0,0,1,1.017-.674,3.254,3.254,0,0,1,1.261-.244,3,3,0,0,1,2.227.953,3.163,3.163,0,0,1,.645,1.063,3.8,3.8,0,0,1,.233,1.343v.465h-4.383a1.624,1.624,0,0,0,.582.7,1.6,1.6,0,0,0,.93.273,1.908,1.908,0,0,0,.7-.122,1.518,1.518,0,0,0,.535-.343Zm-2.743-3.906a1.289,1.289,0,0,0-.8.256,1.363,1.363,0,0,0-.477.721H590.9a1.485,1.485,0,0,0-.494-.709,1.259,1.259,0,0,0-.8-.267" transform="translate(-575.851 -408.984)" fill="#fff"/>
            <path id="Trazado_12221" data-name="Trazado 12221" d="M624.071,410.882v-.453a2.955,2.955,0,0,1-.779.4,2.737,2.737,0,0,1-.872.139,3.105,3.105,0,0,1-1.226-.244,3.071,3.071,0,0,1-1-.674,3.189,3.189,0,0,1-.668-1.006,3.138,3.138,0,0,1-.244-1.238,3.072,3.072,0,0,1,.25-1.238,3.112,3.112,0,0,1,1.7-1.668,3.316,3.316,0,0,1,2.075-.139,3.12,3.12,0,0,1,.744.3v-1.544l1.883-.407v7.775ZM621.13,407.8a1.468,1.468,0,0,0,.471,1.11,1.6,1.6,0,0,0,1.145.448,2.047,2.047,0,0,0,.721-.122,1.7,1.7,0,0,0,.582-.366V406.72a1.826,1.826,0,0,0-.582-.349,2.018,2.018,0,0,0-.721-.128,1.594,1.594,0,0,0-1.151.448,1.479,1.479,0,0,0-.465,1.11" transform="translate(-601.949 -403.099)" fill="#fff"/>
            <rect id="Rectángulo_3758" data-name="Rectángulo 3758" width="1.883" height="6.149" transform="translate(24.912 1.633)" fill="#fff"/>
            <path id="Trazado_12222" data-name="Trazado 12222" d="M698.321,412.327a.282.282,0,0,0-.371.145l-.366.835a1.784,1.784,0,0,1,.034.346,1.535,1.535,0,0,1-.436,1.1,1.475,1.475,0,0,1-2.128,0,1.631,1.631,0,0,1,0-2.22,1.474,1.474,0,0,1,2.128,0,1.573,1.573,0,0,1,.223.3l.22-.5a.635.635,0,0,1,.837-.327l.677.3a3.191,3.191,0,0,0-.656-.913,3.343,3.343,0,0,0-1.058-.68,3.548,3.548,0,0,0-2.616,0,3.339,3.339,0,0,0-1.058.68,3.21,3.21,0,0,0-.709,1.018,3.118,3.118,0,0,0,0,2.5,3.2,3.2,0,0,0,.709,1.017,3.247,3.247,0,0,0,1.058.674,3.626,3.626,0,0,0,2.616,0,3.249,3.249,0,0,0,1.058-.674,3.2,3.2,0,0,0,.709-1.017,3.032,3.032,0,0,0,.262-1.249,3.069,3.069,0,0,0-.13-.888Z" transform="translate(-660.36 -408.94)" fill="#fff"/>
          </g>
        </g>
        <g id="Rectángulo_4" data-name="Rectángulo 4" transform="translate(347 787)" fill="#3ec72e" stroke="#fff" stroke-width="0.3">
          <rect width="31" height="6" rx="3" stroke="none"/>
          <rect x="0.15" y="0.15" width="30.7" height="5.7" rx="2.85" fill="none"/>
        </g>
        <g id="Rectángulo_5" data-name="Rectángulo 5" transform="translate(388 787)" fill="#ff6c0e" stroke="#fff" stroke-width="0.3">
          <rect width="6" height="6" rx="3" stroke="none"/>
          <rect x="0.15" y="0.15" width="5.7" height="5.7" rx="2.85" fill="none"/>
        </g>
      </g>
      <g id="Trazado_1" data-name="Trazado 1" transform="translate(342 877)" fill="#05369c">
        <path d="M 3 5.849999904632568 C 1.428500056266785 5.849999904632568 0.1500000059604645 4.571499824523926 0.1500000059604645 3 C 0.1500000059604645 1.428500056266785 1.428500056266785 0.1500000059604645 3 0.1500000059604645 C 4.571499824523926 0.1500000059604645 5.849999904632568 1.428500056266785 5.849999904632568 3 C 5.849999904632568 4.571499824523926 4.571499824523926 5.849999904632568 3 5.849999904632568 Z" stroke="none"/>
        <path d="M 3 0.3000001907348633 C 1.511209964752197 0.3000001907348633 0.3000001907348633 1.511209964752197 0.3000001907348633 3 C 0.3000001907348633 4.488790035247803 1.511209964752197 5.699999809265137 3 5.699999809265137 C 4.488790035247803 5.699999809265137 5.699999809265137 4.488790035247803 5.699999809265137 3 C 5.699999809265137 1.511209964752197 4.488790035247803 0.3000001907348633 3 0.3000001907348633 M 3 0 C 4.65684986114502 0 6 1.34315013885498 6 3 C 6 4.65684986114502 4.65684986114502 6 3 6 C 1.34315013885498 6 0 4.65684986114502 0 3 C 0 1.34315013885498 1.34315013885498 0 3 0 Z" stroke="none" fill="#fff"/>
      </g>
    </g>
    <g id="Trazado_2" data-name="Trazado 2" transform="translate(358 877)" fill="#fecd3b">
      <path d="M 3 5.849999904632568 C 1.428500056266785 5.849999904632568 0.1500000059604645 4.571499824523926 0.1500000059604645 3 C 0.1500000059604645 1.428500056266785 1.428500056266785 0.1500000059604645 3 0.1500000059604645 C 4.571499824523926 0.1500000059604645 5.849999904632568 1.428500056266785 5.849999904632568 3 C 5.849999904632568 4.571499824523926 4.571499824523926 5.849999904632568 3 5.849999904632568 Z" stroke="none"/>
      <path d="M 3 0.3000001907348633 C 1.511209964752197 0.3000001907348633 0.3000001907348633 1.511209964752197 0.3000001907348633 3 C 0.3000001907348633 4.488790035247803 1.511209964752197 5.699999809265137 3 5.699999809265137 C 4.488790035247803 5.699999809265137 5.699999809265137 4.488790035247803 5.699999809265137 3 C 5.699999809265137 1.511209964752197 4.488790035247803 0.3000001907348633 3 0.3000001907348633 M 3 0 C 4.65684986114502 0 6 1.34315013885498 6 3 C 6 4.65684986114502 4.65684986114502 6 3 6 C 1.34315013885498 6 0 4.65684986114502 0 3 C 0 1.34315013885498 1.34315013885498 0 3 0 Z" stroke="none" fill="#fff"/>
    </g>
    <path id="Trazado_12217-2" data-name="Trazado 12217" d="M655.723,403.1a1.012,1.012,0,0,0,2.023,0Z" transform="translate(-431.285 471.935)" fill="#fff"/>
    <rect id="Rectángulo_3758-2" data-name="Rectángulo 3758" width="1.827" height="6.149" transform="translate(224.535 876.662)" fill="#fff"/>
  </g>
</svg>
