<svg id="Grupo_13244" data-name="Grupo 13244" xmlns="http://www.w3.org/2000/svg" width="260" height="31.561" viewBox="0 0 260 31.561">
  <g id="Grupo_13216" data-name="Grupo 13216">
    <path id="Trazado_6651" data-name="Trazado 6651" d="M-414.374-1236.484v-6.27h-6.874v-6.527l-4.932,1.066a7.062,7.062,0,0,1-1.04,2.6,6.882,6.882,0,0,1-4.491,3.113c-.1.022-.2.034-.3.051v5.966h3.241v10.822a7.336,7.336,0,0,0,2.252,5.829q2.252,1.974,6.664,1.974a20.788,20.788,0,0,0,2.648-.209,15.428,15.428,0,0,0,2.6-.535v-6.084a12.226,12.226,0,0,1-1.718.394,11.44,11.44,0,0,1-1.673.116,3.7,3.7,0,0,1-2.531-.672,3.047,3.047,0,0,1-.72-2.3v-9.336Z" transform="translate(489.935 1249.281)" fill="#fff"/>
    <path id="Trazado_6652" data-name="Trazado 6652" d="M-479.892-1249.281a4,4,0,0,0,1.2,2.719,4.02,4.02,0,0,0,2.955,1.22,4.022,4.022,0,0,0,2.954-1.22,4,4,0,0,0,1.2-2.719Z" transform="translate(504.135 1249.281)" fill="#fff"/>
    <path id="Trazado_6653" data-name="Trazado 6653" d="M-514.357-1218.33l3.576-5.062a21.417,21.417,0,0,0,4.227,2.02,11.979,11.979,0,0,0,3.762.627,6.781,6.781,0,0,0,2.949-.534,1.605,1.605,0,0,0,1.092-1.416,1.356,1.356,0,0,0-.6-1.139,4.346,4.346,0,0,0-1.9-.628l-4.877-.742a10,10,0,0,1-5.574-2.438,6.5,6.5,0,0,1-1.951-4.9,6.929,6.929,0,0,1,2.833-5.853,12.612,12.612,0,0,1,7.756-2.136,19.241,19.241,0,0,1,5.319.766,18.982,18.982,0,0,1,4.946,2.208l-3.575,4.83a17.589,17.589,0,0,0-3.81-1.7,12.769,12.769,0,0,0-3.622-.533,4.8,4.8,0,0,0-2.322.487,1.449,1.449,0,0,0-.883,1.278,1.361,1.361,0,0,0,.651,1.184,5.644,5.644,0,0,0,2.229.674l4.877.743a9.891,9.891,0,0,1,5.6,2.392,6.3,6.3,0,0,1,1.974,4.761,6.775,6.775,0,0,1-.836,3.3,8.317,8.317,0,0,1-2.3,2.648,11.119,11.119,0,0,1-3.506,1.741,14.964,14.964,0,0,1-4.413.627,24.674,24.674,0,0,1-6.478-.813A15.235,15.235,0,0,1-514.357-1218.33Z" transform="translate(514.357 1246.686)" fill="#fff"/>
    <path id="Trazado_6654" data-name="Trazado 6654" d="M-466.091-1218.33l3.576-5.062a21.415,21.415,0,0,0,4.227,2.02,11.978,11.978,0,0,0,3.762.627,6.781,6.781,0,0,0,2.949-.534,1.605,1.605,0,0,0,1.092-1.416,1.356,1.356,0,0,0-.6-1.139,4.343,4.343,0,0,0-1.9-.628l-4.877-.742a10,10,0,0,1-5.574-2.438,6.5,6.5,0,0,1-1.951-4.9,6.93,6.93,0,0,1,2.833-5.853,12.613,12.613,0,0,1,7.757-2.136,19.241,19.241,0,0,1,5.318.766,18.982,18.982,0,0,1,4.946,2.208l-3.575,4.83a17.585,17.585,0,0,0-3.809-1.7,12.777,12.777,0,0,0-3.623-.533,4.8,4.8,0,0,0-2.322.487,1.449,1.449,0,0,0-.883,1.278,1.361,1.361,0,0,0,.651,1.184,5.645,5.645,0,0,0,2.229.674l4.877.743a9.9,9.9,0,0,1,5.6,2.392,6.3,6.3,0,0,1,1.973,4.761,6.774,6.774,0,0,1-.836,3.3,8.317,8.317,0,0,1-2.3,2.648,11.112,11.112,0,0,1-3.506,1.741,14.964,14.964,0,0,1-4.413.627,24.679,24.679,0,0,1-6.478-.813A15.234,15.234,0,0,1-466.091-1218.33Z" transform="translate(500.042 1246.686)" fill="#fff"/>
    <path id="Trazado_6655" data-name="Trazado 6655" d="M-381.44-1218.861a15.8,15.8,0,0,1-4.761,2.833,16.111,16.111,0,0,1-5.5.883,14.108,14.108,0,0,1-5.248-.976,12.907,12.907,0,0,1-4.249-2.694,12.791,12.791,0,0,1-2.833-4.063,12.123,12.123,0,0,1-1.045-4.993,12.608,12.608,0,0,1,1-4.993,12.747,12.747,0,0,1,2.717-4.064,12.456,12.456,0,0,1,4.064-2.694,13.011,13.011,0,0,1,5.039-.975,12,12,0,0,1,4.971,1.021,12.117,12.117,0,0,1,3.924,2.787,12.642,12.642,0,0,1,2.577,4.251,15.184,15.184,0,0,1,.93,5.364v1.858h-17.51a6.482,6.482,0,0,0,2.322,2.81,6.37,6.37,0,0,0,3.715,1.091,7.635,7.635,0,0,0,2.786-.488,6.079,6.079,0,0,0,2.137-1.37Zm-10.961-15.606a5.153,5.153,0,0,0-3.205,1.023,5.444,5.444,0,0,0-1.9,2.88h10.264a5.937,5.937,0,0,0-1.974-2.833A5.024,5.024,0,0,0-392.4-1234.467Z" transform="translate(481.947 1246.706)" fill="#fff"/>
    <rect id="Rect치ngulo_3382" data-name="Rect치ngulo 3382" width="7.524" height="24.569" transform="translate(24.634 6.527)" fill="#fff"/>
  </g>
  <g id="Grupo_13220" data-name="Grupo 13220" transform="translate(103.804)">
    <g id="Grupo_13219" data-name="Grupo 13219">
      <path id="Trazado_6656" data-name="Trazado 6656" d="M-191.325-1236.484v-6.27H-198.2v-6.527l-4.933,1.066a7.05,7.05,0,0,1-1.04,2.6,6.88,6.88,0,0,1-4.491,3.113c-.1.022-.2.034-.3.051v5.966h3.24v10.822a7.336,7.336,0,0,0,2.252,5.829q2.252,1.974,6.665,1.974a20.788,20.788,0,0,0,2.647-.209,15.415,15.415,0,0,0,2.6-.535v-6.084a12.217,12.217,0,0,1-1.718.394,11.45,11.45,0,0,1-1.673.116,3.7,3.7,0,0,1-2.531-.672,3.05,3.05,0,0,1-.719-2.3v-9.336Z" transform="translate(319.978 1249.281)" fill="#fff"/>
      <g id="Grupo_13217" data-name="Grupo 13217" transform="translate(50.77 0.028)">
        <path id="Trazado_6657" data-name="Trazado 6657" d="M-294.61-1249.241a4,4,0,0,0,1.2,2.719,4.021,4.021,0,0,0,2.955,1.219,4.021,4.021,0,0,0,2.954-1.219,4,4,0,0,0,1.2-2.719Z" transform="translate(294.61 1249.241)" fill="#fff"/>
      </g>
      <g id="Grupo_13218" data-name="Grupo 13218" transform="translate(99.141 0.028)">
        <path id="Trazado_6658" data-name="Trazado 6658" d="M-225.844-1249.241a4,4,0,0,0,1.2,2.719,4.021,4.021,0,0,0,2.955,1.219,4.022,4.022,0,0,0,2.954-1.219,4,4,0,0,0,1.2-2.719Z" transform="translate(225.844 1249.241)" fill="#fff"/>
      </g>
      <path id="Trazado_6659" data-name="Trazado 6659" d="M-353.41-1221.667a6.246,6.246,0,0,0,2.833-.649,8.555,8.555,0,0,0,2.508-2l4.458,4.645a12.722,12.722,0,0,1-4.551,3.32,13.81,13.81,0,0,1-5.62,1.185,13.448,13.448,0,0,1-5.132-.976,12.555,12.555,0,0,1-4.133-2.694,12.6,12.6,0,0,1-2.741-4.04,12.567,12.567,0,0,1-1-5.016,12.734,12.734,0,0,1,1-5.039,12.3,12.3,0,0,1,2.741-4.041,13.1,13.1,0,0,1,4.133-2.694,13.2,13.2,0,0,1,5.132-1,14.147,14.147,0,0,1,5.76,1.207,13.348,13.348,0,0,1,4.645,3.345l-4.6,4.784a9.543,9.543,0,0,0-2.648-2.136,6.364,6.364,0,0,0-2.973-.7,5.277,5.277,0,0,0-4.064,1.812,6.381,6.381,0,0,0-1.648,4.458,6.2,6.2,0,0,0,1.7,4.436A5.558,5.558,0,0,0-353.41-1221.667Z" transform="translate(366.786 1246.725)" fill="#fff"/>
      <path id="Trazado_6660" data-name="Trazado 6660" d="M-330.934-1215.668v-24.57h7.524v2.461a8.546,8.546,0,0,1,2.833-2.229,8.186,8.186,0,0,1,3.623-.79,13.83,13.83,0,0,1,1.718.162,2.761,2.761,0,0,1,1.114.442v6.548a9.265,9.265,0,0,0-1.671-.534,8.61,8.61,0,0,0-1.9-.209,6.654,6.654,0,0,0-3.275.836,6.756,6.756,0,0,0-2.438,2.276v15.606Z" transform="translate(356.153 1246.764)" fill="#fff"/>
      <path id="Trazado_6661" data-name="Trazado 6661" d="M-282.994-1218.861a15.8,15.8,0,0,1-4.761,2.833,16.109,16.109,0,0,1-5.5.883,14.113,14.113,0,0,1-5.248-.976,12.907,12.907,0,0,1-4.249-2.694,12.792,12.792,0,0,1-2.833-4.063,12.123,12.123,0,0,1-1.045-4.993,12.62,12.62,0,0,1,1-4.993,12.736,12.736,0,0,1,2.717-4.064,12.448,12.448,0,0,1,4.064-2.694,13.006,13.006,0,0,1,5.039-.975,12,12,0,0,1,4.97,1.021,12.1,12.1,0,0,1,3.924,2.787,12.655,12.655,0,0,1,2.578,4.251,15.2,15.2,0,0,1,.929,5.364v1.858h-17.51a6.491,6.491,0,0,0,2.322,2.81,6.37,6.37,0,0,0,3.715,1.091,7.638,7.638,0,0,0,2.787-.488,6.083,6.083,0,0,0,2.136-1.37Zm-10.961-15.606a5.149,5.149,0,0,0-3.2,1.023,5.441,5.441,0,0,0-1.9,2.88H-288.8a5.937,5.937,0,0,0-1.974-2.833A5.024,5.024,0,0,0-293.954-1234.467Z" transform="translate(348.946 1246.706)" fill="#fff"/>
      <path id="Trazado_6662" data-name="Trazado 6662" d="M-249.2-1218.172v-1.811a11.788,11.788,0,0,1-3.113,1.578,10.917,10.917,0,0,1-3.483.558,12.4,12.4,0,0,1-4.9-.976,12.254,12.254,0,0,1-3.995-2.694,12.737,12.737,0,0,1-2.671-4.017,12.528,12.528,0,0,1-.975-4.947,12.289,12.289,0,0,1,1-4.947,12.6,12.6,0,0,1,2.717-3.995,12.636,12.636,0,0,1,4.064-2.671,12.891,12.891,0,0,1,4.994-.975,12.837,12.837,0,0,1,3.3.419,12.445,12.445,0,0,1,2.973,1.207v-6.172l7.524-1.626v31.068Zm-11.751-12.308a5.87,5.87,0,0,0,1.881,4.436,6.394,6.394,0,0,0,4.574,1.787,8.169,8.169,0,0,0,2.88-.487,6.786,6.786,0,0,0,2.322-1.464v-8.592a7.274,7.274,0,0,0-2.322-1.394,8.053,8.053,0,0,0-2.88-.511,6.37,6.37,0,0,0-4.6,1.789A5.906,5.906,0,0,0-260.953-1230.481Z" transform="translate(337.588 1249.269)" fill="#fff"/>
      <rect id="Rect치ngulo_3383" data-name="Rect치ngulo 3383" width="7.524" height="24.569" transform="translate(99.532 6.527)" fill="#fff"/>
      <path id="Trazado_6663" data-name="Trazado 6663" d="M-160.5-1233.192a1.113,1.113,0,0,0-.862-.017,1.119,1.119,0,0,0-.623.6l-1.461,3.336a7.119,7.119,0,0,1,.135,1.384,6.129,6.129,0,0,1-1.742,4.412,5.67,5.67,0,0,1-4.25,1.811,5.672,5.672,0,0,1-4.25-1.811,6.126,6.126,0,0,1-1.741-4.412,6.184,6.184,0,0,1,1.741-4.458,5.671,5.671,0,0,1,4.25-1.812,5.668,5.668,0,0,1,4.25,1.812,6.3,6.3,0,0,1,.893,1.184l.881-2.013a2.522,2.522,0,0,1,1.4-1.347,2.523,2.523,0,0,1,1.944.039l2.706,1.184a12.761,12.761,0,0,0-2.622-3.646,13.349,13.349,0,0,0-4.228-2.717,13.666,13.666,0,0,0-5.225-1,13.678,13.678,0,0,0-5.226,1,13.35,13.35,0,0,0-4.226,2.717,12.82,12.82,0,0,0-2.833,4.064,12.125,12.125,0,0,0-1.045,4.993,12.123,12.123,0,0,0,1.045,4.993,12.8,12.8,0,0,0,2.833,4.063,12.985,12.985,0,0,0,4.226,2.694,13.933,13.933,0,0,0,5.226.976,13.922,13.922,0,0,0,5.225-.976,12.984,12.984,0,0,0,4.228-2.694,12.8,12.8,0,0,0,2.832-4.063,12.124,12.124,0,0,0,1.045-4.993,12.3,12.3,0,0,0-.521-3.547Z" transform="translate(312.169 1246.725)" fill="#fff"/>
    </g>
  </g>
</svg>
